<?xml version="1.0" encoding="UTF-8" standalone="no"?>
<!-- Created with Inkscape (http://www.inkscape.org/) -->

<svg
   xmlns:dc="http://purl.org/dc/elements/1.1/"
   xmlns:cc="http://creativecommons.org/ns#"
   xmlns:rdf="http://www.w3.org/1999/02/22-rdf-syntax-ns#"
   xmlns:svg="http://www.w3.org/2000/svg"
   xmlns="http://www.w3.org/2000/svg"
   xmlns:sodipodi="http://sodipodi.sourceforge.net/DTD/sodipodi-0.dtd"
   xmlns:inkscape="http://www.inkscape.org/namespaces/inkscape"
   version="1.1"
   id="svg2"
   width="559.42792"
   height="259.09177"
   viewBox="0 0 559.42792 259.09176"
   sodipodi:docname="Logo CGG.svg"
   inkscape:version="0.92.4 (5da689c313, 2019-01-14)">
  <metadata
     id="metadata8">
    <rdf:RDF>
      <cc:Work
         rdf:about="">
        <dc:format>image/svg+xml</dc:format>
        <dc:type
           rdf:resource="http://purl.org/dc/dcmitype/StillImage" />
        <dc:title></dc:title>
      </cc:Work>
    </rdf:RDF>
  </metadata>
  <defs
     id="defs6" />
  <sodipodi:namedview
     pagecolor="#ffffff"
     bordercolor="#666666"
     borderopacity="1"
     objecttolerance="10"
     gridtolerance="10"
     guidetolerance="10"
     inkscape:pageopacity="0"
     inkscape:pageshadow="2"
     inkscape:window-width="1920"
     inkscape:window-height="1001"
     id="namedview4"
     showgrid="false"
     inkscape:pagecheckerboard="true"
     fit-margin-top="0"
     fit-margin-left="0"
     fit-margin-right="0"
     fit-margin-bottom="0"
     inkscape:zoom="0.72033322"
     inkscape:cx="536.1322"
     inkscape:cy="226.77466"
     inkscape:window-x="-9"
     inkscape:window-y="-9"
     inkscape:window-maximized="1"
     inkscape:current-layer="svg2" />
  <g
     id="g213"
     transform="matrix(0.10217294,0,0,0.10217294,-716.69917,-61.85339)">
    <path
       sodipodi:nodetypes="cccccccsccccccccccccsccccsscccccscccccccccccccsccccsccccccssccccccccccsccccccccccscccccccccccsscccsccccccccsccscccsccccccscccscccc"
       inkscape:connector-curvature="0"
       id="path31-7"
       d="m 9345.217,2421.7531 c -33.033,-0.6679 -83.719,-3.2087 -102.667,-5.1461 -106.363,-10.8766 -187.437,-45.7187 -245.385,-105.4552 -24.485,-25.2411 -40.902,-48.2958 -57.043,-80.106 -30.706,-60.5171 -46.791,-129.3874 -53.492,-229.0458 -3.16,-47.0013 -4.424,-120.2322 -2.857,-165.5728 4.575,-132.356 20.592,-213.0856 56.166,-283.0825 39.863,-78.439 102.018,-132.2864 186.35,-161.443 45.976,-15.8956 87.604,-24.0829 141.594,-27.8486 76.43,-5.331 261.205,-5.3328 338.667,0 169.788,11.6812 276.192,65.7833 326.377,165.9505 24.045,47.994 34.179,93.5789 35.896,161.474 0.764,30.2377 0.726,30.8604 -2.08,33.6667 l -2.86,2.8557 -100.333,-0.02 c -109.298,-0.021 -110.126,-0.072 -123.99,-7.6185 -8.137,-4.4283 -19.578,-16.6066 -23.559,-25.0764 -1.651,-3.511 -6.195,-14.8934 -10.099,-25.2943 -8.508,-22.6675 -11.815,-29.3861 -19.799,-40.2225 -10.339,-14.0335 -25.865,-23.7714 -44.44,-27.8727 -26.746,-5.9055 -322.366,-5.8165 -362.273,0.1093 -34.033,5.0536 -60.279,16.7402 -80.672,35.9222 -30.209,28.4146 -44.915,71.1874 -49.534,144.073 -2.322,36.6368 -3.092,131.5797 -1.45,178.6667 2.39,68.5436 4.489,87.59 13.002,118 16.496,58.925 52.28,90.1535 116.333,101.5235 21.186,3.7607 93.655,4.8944 241.481,3.7779 109.628,-0.828 112.947,-0.928 123.067,-3.7055 15.65,-4.2951 28.137,-11.4253 38.954,-22.2417 11.182,-11.1824 16.553,-20.9364 25.338,-46.0208 3.468,-9.9 8.994,-23.662 12.281,-30.5822 9.613,-20.2354 23.461,-31.8729 42.759,-35.9317 4.853,-1.0207 40.164,-1.4861 112.745,-1.4861 89.375,0 106.079,0.2932 108.268,1.9004 2.424,1.7796 2.578,3.6214 2.439,29 -0.375,68.3428 -11.239,119.3224 -36.038,169.0996 -35.08,70.4161 -89.217,115.2049 -174.544,144.4052 -57.58,19.7049 -120.086,29.1982 -216.602,32.8974 -30.59,1.1724 -162.441,1.4526 -212,0.4504 z m 1213.333,-1.7952 c -69.455,-1.6016 -100.052,-4.6616 -141.333,-14.1345 -73.667,-16.9043 -133.702,-47.7428 -177.322,-91.087 -47.453,-47.1522 -77.243,-104.4754 -97.391,-187.403 -16.158,-66.5099 -19.183,-109.0872 -18.25,-256.8786 0.64,-101.3059 1.079,-110.2549 7.737,-157.7881 14.746,-105.2662 48.079,-182.8695 103.303,-240.5002 54.205,-56.5673 129.89,-91.2534 228.589,-104.762 36.214,-4.9564 60.963,-6.1121 162,-7.5648 156.258,-2.2465 229.201,0.7456 298.667,12.2514 69.775,11.5569 129.366,35.083 173.969,68.6818 71.019,53.4982 108.329,139.5284 109.718,252.989 0.352,28.7525 -0.1,30.5989 -8.042,32.9524 -3.505,1.0382 -33.989,1.3365 -102.978,1.0074 -95.464,-0.4552 -98.215,-0.5398 -106.286,-3.2732 -23.768,-8.049 -34.106,-20.8304 -46.827,-57.8989 -7.593,-22.1225 -13.482,-33.0096 -23.737,-43.8805 -9.635,-10.2138 -21.087,-16.8474 -35.817,-20.747 -13.185,-3.4904 -88.329,-4.9149 -216.667,-4.1073 -119.958,0.7548 -144.96,1.668 -164.917,6.0237 -48.831,10.6576 -83.121,41.3296 -100.135,89.5704 -12.369,35.0692 -16.406,84.9264 -16.566,204.5911 -0.08,64.1822 0.944,90.9168 5.009,130 5.803,55.8123 16.606,84.8375 41.05,110.2995 16.295,16.9733 34.048,27.6397 59.061,35.4871 18.965,5.9496 32.43,7.614 73.165,9.0434 53.34,1.8718 247.979,1.9158 282.02,0.064 43.99,-2.3933 63.311,-8.8798 82.031,-27.5396 11.084,-11.0488 20.111,-27.8674 24.633,-45.8938 4.938,-19.6843 5.937,-61.3716 1.574,-65.736 -1.371,-1.3723 -25.46,-1.8748 -117.991,-2.4614 -125.701,-0.7969 -120.956,-0.5174 -136.49,-8.0373 -13.054,-6.3195 -22.698,-20.6977 -25.861,-38.5589 -0.971,-5.4786 -1.786,-35.763 -2.217,-82.327 -0.617,-66.7676 -0.476,-73.9728 1.507,-77 l 2.189,-3.3397 242.302,0.013 c 161.931,0.013 245.149,0.4717 250.882,1.402 26.832,4.3535 42.457,15.5439 49.759,35.6372 2.607,7.1731 2.839,11.7775 3.983,78.9507 1.683,98.8839 -0.594,152.6691 -8.382,198 -25.77,149.9988 -115.177,233.9487 -279.036,262.0045 -25.062,4.2911 -61.078,8.4959 -92.236,10.7686 -25.148,1.8342 -221.131,2.65 -284.667,1.1848 z m 1273.482,0.043 c -25.951,-0.5996 -56.551,-1.7815 -68,-2.6264 -50.49,-3.7266 -96.449,-13.0014 -135.713,-27.3882 -16.875,-6.1833 -52.468,-23.6597 -67.462,-33.1242 -82.767,-52.2452 -132.963,-133.7558 -156.162,-253.584 -10.47,-54.0807 -14.134,-108.8738 -14.125,-211.2779 0.01,-131.2434 6.574,-194.8854 27.571,-267.3334 10.623,-36.655 30.479,-80.7341 48.651,-108 56.729,-85.1228 146.649,-135.1477 268.425,-149.3332 62.087,-7.2324 117.398,-9.2082 228,-8.1445 134.721,1.2956 172.67,3.1888 219.333,10.9424 178.938,29.7329 271.728,117.3576 289.308,273.202 2.603,23.0715 4.249,69.5524 2.67,75.4139 -2.651,9.8454 1.927,9.4708 -109.121,8.9297 -88.725,-0.4323 -98.962,-0.7035 -106.19,-2.8136 -10.746,-3.1369 -18.762,-7.9309 -26.091,-15.6052 -8.187,-8.5729 -13.03,-18.1308 -21.243,-41.9248 -8.819,-25.5512 -13.295,-33.9099 -24,-44.8123 -13.95,-14.2088 -28.67,-20.3649 -54.635,-22.8496 -11.795,-1.1288 -59.373,-1.6018 -162.031,-1.6114 -152.501,-0.015 -179.151,0.7569 -202.086,5.8476 -56.786,12.6042 -93.507,52.8966 -106.473,116.8297 -10.261,50.5947 -12.688,205.0344 -4.709,299.6583 4.428,52.5119 13.364,82.6229 31.799,107.1428 20.659,27.4793 56.43,46.8733 98.072,53.1713 17.6,2.6619 172.827,5.1643 250.73,4.042 98.292,-1.4161 113.979,-3.048 137.199,-14.2732 21.876,-10.5757 37.223,-30.7592 43.958,-57.8118 5.658,-22.7298 7.721,-57.7594 3.757,-63.8088 -4.642,-7.0851 -0.165,-6.8055 -121.581,-7.592 -101.354,-0.6566 -114.151,-0.9736 -121.067,-3.0006 -24.462,-7.1686 -34.162,-19.4366 -38.197,-48.306 -0.72,-5.1556 -1.378,-41.4458 -1.461,-80.645 l -0.152,-71.2711 3.513,-3.0216 3.513,-3.0216 h 239.751 c 266.498,0 254.375,-0.387 273.013,8.7148 15.243,7.4437 22.553,17.6829 27.479,38.4905 1.179,4.9828 1.606,32.7496 1.598,104.128 -0.01,84.1776 -0.334,100.4871 -2.411,120.6667 -6.151,59.7615 -16.64,100.5271 -36.193,140.6667 -39.485,81.0588 -109.939,132.3154 -215.386,156.6976 -34.434,7.962 -78.841,14.1666 -124,17.3254 -26.373,1.8448 -217.911,2.742 -279.851,1.311 z"
       style="fill:#0392ce;fill-opacity:1;stroke-width:1.33333337" />
    <path
       sodipodi:nodetypes="ccccscscccccccccccccccccccccsccccccccccccccccccccccccccscsccsccccccccccccccccccccccccscsccccscccccccccccscccccsccsccccccccsccscccccsccsccccccccccccscccccccscccscccccccccccccccccsccscccsccccccccccccccccccccccccccsccccccccsccccccccccccccccccccccscsccccccccccscccccccccccccccccccccccccsccscccscccccccccccccccccccsscccccccccccccccccccccccccsccscccscccccccscccccccccccccccccssccccccccccccccccccccccccccccccccccccccccscscsccccccccccccccccscccscccccccccccccccccccccccccccccccccccccccccccccccccccccccccccccscsccccccccccccccccccccccc"
       inkscape:connector-curvature="0"
       id="path31-3"
       d="m 7851.4296,3139.9366 c -31.9187,-5.3574 -51.114,-19.5595 -60.502,-44.7643 -4.5761,-12.2857 -5.9156,-41.6939 -2.5137,-55.1883 5.2435,-20.8 16.4259,-34.8562 34.4486,-43.3021 16.4511,-7.7093 24.7189,-8.6819 73.8094,-8.6819 h 43.5678 l -0.6788,-13 c -1.1436,-21.9013 -9.0644,-36.2493 -24.0621,-43.5869 -18.4514,-9.0275 -50.4964,-6.034 -72.1527,6.7401 -4.3287,2.5534 -8.7106,4.32 -9.7376,3.9259 -1.0269,-0.394 -9.3348,-5.8632 -18.4621,-12.1536 -19.133,-13.1864 -18.9234,-12.3392 -5.7625,-23.2919 9.92,-8.2554 25.2459,-16.106 40.7902,-20.8941 10.9809,-3.3825 13.326,-3.6111 37.7091,-3.6732 23.301,-0.059 27.1011,0.2525 36.6066,3.0047 30.9412,8.9582 51.5778,29.3416 60.3359,59.5957 2.0797,7.184 2.359,17.4187 2.7383,100.3333 l 0.4225,92.3334 h -24.0517 -24.0516 v -8.171 -8.1708 l -4.3333,3.5162 c -7.0166,5.6932 -19.2271,11.4889 -30.0219,14.2497 -7.8251,2.0013 -14.2614,2.5409 -28.8581,2.4191 -10.3327,-0.087 -21.6908,-0.6443 -25.2403,-1.24 z m 61.1203,-41.4807 c 13.6749,-2.2721 23.2565,-7.9065 26.0817,-15.3373 0.6884,-1.8107 1.2516,-14.9531 1.2516,-29.2054 V 3028 l -33.6666,0.027 c -18.5167,0.015 -37.7432,0.6159 -42.7255,1.3363 -20.2033,2.9212 -29.2085,12.8886 -29.4865,32.6373 -0.157,11.1579 1.2949,16.794 5.9989,23.2879 9.8856,13.6466 38.4553,18.8324 72.5464,13.168 z m 194.3131,40.9604 c -14.5684,-2.7604 -27.6302,-7.0505 -39.9026,-13.1057 -13.8921,-6.8544 -34.2006,-21.8636 -33.1804,-24.5223 0.4025,-1.0491 7.1116,-9.6745 14.9091,-19.1679 l 14.1772,-17.2605 4.9415,3.9137 c 12.9399,10.2486 33.4015,20.241 50.7421,24.7796 10.9974,2.8786 35.5823,2.9178 49.1598,0.079 19.0203,-3.9775 30.8424,-14.2725 32.8089,-28.5711 1.7075,-12.4148 -2.8949,-21.8677 -12.939,-26.5758 -8.1445,-3.8178 -16.597,-5.2342 -49.5003,-8.2955 -40.5531,-3.7732 -54.1697,-7.0091 -67.9768,-16.1545 -19.3233,-12.7992 -27.3785,-39.8722 -21.5676,-72.4874 5.1922,-29.1422 24.2229,-48.0086 57.3483,-56.853 8.332,-2.2246 15.9198,-2.9899 34.6667,-3.4967 26.5916,-0.7187 39.5227,0.8177 59.5143,7.0715 12.4169,3.8842 37.3859,16.2874 43.7099,21.7126 l 4.101,3.5182 -14.7022,17.6666 c -8.0861,9.7167 -15.2726,17.6667 -15.97,17.6667 -0.6973,0 -4.6534,-2.1657 -8.7912,-4.8127 -21.9562,-14.0452 -46.7071,-20.1674 -71.897,-17.7842 -23.8498,2.2564 -37.3574,10.7794 -40.691,25.6756 -4.6557,20.8038 4.5588,27.9633 40.0595,31.1257 58.1826,5.1827 71.6793,7.9992 86.8373,18.1213 16.3978,10.95 24.2396,26.7892 25.9135,52.341 1.6092,24.5634 -5.6108,46.3733 -20.1605,60.9 -11.0102,10.9926 -25.661,18.2056 -47.2569,23.2654 -12.3527,2.8942 -61.3322,3.7182 -74.3536,1.2508 z m 241.3334,0 c -14.5684,-2.7604 -27.6302,-7.0505 -39.9028,-13.1057 -13.8919,-6.8544 -34.2005,-21.8636 -33.1803,-24.5223 0.4026,-1.0491 7.1117,-9.6745 14.9091,-19.1679 l 14.1772,-17.2605 4.9416,3.9137 c 12.9399,10.2486 33.4015,20.241 50.742,24.7796 10.9974,2.8786 35.5824,2.9178 49.1599,0.079 19.0203,-3.9775 30.8423,-14.2725 32.8088,-28.5711 1.7076,-12.4148 -2.8948,-21.8677 -12.9389,-26.5758 -8.1446,-3.8178 -16.597,-5.2342 -49.5003,-8.2955 -40.5532,-3.7732 -54.1697,-7.0091 -67.9768,-16.1545 -19.3234,-12.7992 -27.3786,-39.8722 -21.5677,-72.4874 5.1922,-29.1422 24.2229,-48.0086 57.3484,-56.853 8.332,-2.2246 15.9197,-2.9899 34.6666,-3.4967 26.5916,-0.7187 39.5227,0.8177 59.5143,7.0715 12.4169,3.8842 37.386,16.2874 43.71,21.7126 l 4.1009,3.5182 -14.7021,17.6666 c -8.0861,9.7167 -15.2727,17.6667 -15.97,17.6667 -0.6973,0 -4.6535,-2.1657 -8.7913,-4.8127 -21.9562,-14.0452 -46.7071,-20.1674 -71.897,-17.7842 -23.8498,2.2564 -37.3574,10.7794 -40.691,25.6756 -4.6556,20.8038 4.5588,27.9633 40.0596,31.1257 58.1826,5.1827 71.6792,7.9992 86.8373,18.1213 16.3977,10.95 24.2396,26.7892 25.9135,52.341 1.6092,24.5634 -5.6108,46.3733 -20.1606,60.9 -11.0101,10.9926 -25.661,18.2056 -47.2569,23.2654 -12.3527,2.8942 -61.3323,3.7182 -74.3535,1.2508 z m 387.6868,-0.03 c -33.2272,-7.074 -57.3098,-27.0856 -68.5577,-56.9683 -6.4028,-17.0108 -7.6508,-26.3325 -8.3915,-62.6755 -0.9825,-48.221 1.3719,-65.8793 11.6103,-87.0757 12.2575,-25.3763 30.7196,-40.1172 60.6723,-48.4429 11.704,-3.2534 52.5693,-3.1615 64.6666,0.1453 34.3784,9.3973 58.029,33.2396 66.7578,67.2989 6.6256,25.8532 6.9345,90.8774 0.5566,117.1824 -1.22,5.0323 -4.9461,14.8496 -8.2801,21.8163 -11.006,22.9981 -32.4165,40.4169 -58.3676,47.486 -11.0171,3.0011 -48.7599,3.7684 -60.6667,1.2335 z m 46,-48.2252 c 3.6667,-1.0934 9.5176,-4.0583 13.0022,-6.589 18.2549,-13.2574 23.3281,-32.6384 21.9629,-83.9053 -0.7656,-28.7547 -2.3608,-37.0937 -9.3636,-48.9523 -10.0356,-16.9944 -30.494,-25.5614 -53.3155,-22.3264 -16.2892,2.3091 -26.1676,8.1052 -34.1262,20.0232 -9.0092,13.4914 -10.1598,20.5796 -10.1598,62.5888 0,34.3527 0.1902,37.2714 3.0123,46.2472 2.8476,9.0571 9.2228,19.2311 15.5371,24.7951 11.5393,10.1683 34.7524,13.6941 53.4506,8.1187 z m 735.3334,48.2252 c -33.2272,-7.074 -57.3099,-27.0856 -68.5578,-56.9683 -6.4028,-17.0108 -7.6508,-26.3325 -8.3914,-62.6755 -0.9826,-48.221 1.3718,-65.8793 11.6102,-87.0757 12.2575,-25.3763 30.7196,-40.1172 60.6723,-48.4429 11.704,-3.2534 52.5693,-3.1615 64.6667,0.1453 34.3784,9.3973 58.0289,33.2396 66.7577,67.2989 6.6256,25.8532 6.9345,90.8774 0.5567,117.1824 -1.22,5.0323 -4.9462,14.8496 -8.2802,21.8163 -11.006,22.9981 -32.4165,40.4169 -58.3676,47.486 -11.017,3.0011 -48.7598,3.7684 -60.6666,1.2335 z m 46,-48.2252 c 3.6666,-1.0934 9.5176,-4.0583 13.0021,-6.589 18.2549,-13.2574 23.3281,-32.6384 21.9629,-83.9053 -0.7656,-28.7547 -2.3608,-37.0937 -9.3636,-48.9523 -10.0356,-16.9944 -30.494,-25.5614 -53.3154,-22.3264 -16.2892,2.3091 -26.1676,8.1052 -34.1263,20.0232 -9.0092,13.4914 -10.1597,20.5796 -10.1597,62.5888 0,34.3527 0.1901,37.2714 3.0122,46.2472 2.8476,9.0571 9.2228,19.2311 15.5371,24.7951 11.5393,10.1683 34.7524,13.6941 53.4507,8.1187 z m 544.1784,48.1744 c -28.16,-5.8172 -52.97,-20.126 -68.839,-39.7022 -9.242,-11.4016 -18.168,-29.2274 -22.377,-44.6865 l -3.525,-12.9467 -0.464,-70.6666 c -0.465,-70.9152 0.08,-83.3472 4.368,-99.8142 12.232,-46.959 45.902,-79.496 91.14,-88.0725 12.755,-2.4183 38.576,-2.784 50.274,-0.712 45.393,8.04 81.267,40.3847 95.755,86.3341 5.617,17.8175 7.874,16.2646 -23.633,16.2646 h -27.122 l -1.695,-5.6667 c -9.709,-32.4427 -41.88,-53.2035 -75.837,-48.9396 -24.59,3.0876 -42.482,16.5237 -53.578,40.2348 -7.823,16.7176 -8.154,20.9241 -7.676,97.5997 0.424,68.0322 0.493,69.5983 3.405,77.3319 4.429,11.7615 9.24,19.2753 17.57,27.4399 13.239,12.9764 30.252,19.0994 52.723,18.9754 28.068,-0.1549 48.256,-11.8916 60.738,-35.3109 6.377,-11.9643 9.283,-24.502 10.199,-43.9979 l 0.799,-17 h -17.99 c -9.895,0 -26.186,-0.393 -36.202,-0.8733 l -18.21,-0.8735 V 2971.1267 2948 h 62 62 l -0.02,33.6667 c -0.01,18.5167 -0.614,39.2685 -1.335,46.1152 -5.861,55.6431 -35.95,94.2903 -84.914,109.0667 -10.4,3.1386 -14.371,3.587 -35.062,3.9589 -16.428,0.2952 -26.043,-0.1404 -32.489,-1.4721 z m 307.645,0.5422 c -37.873,-6.3309 -65.949,-29.7924 -77.755,-64.9762 -4.737,-14.1196 -6.718,-32.0595 -6.726,-60.9363 0,-14.686 0.605,-31.5911 1.354,-37.5671 5.84,-46.569 28.775,-77.5732 66.529,-89.9321 11.304,-3.7003 15.027,-4.2555 32.318,-4.8188 15.319,-0.4991 21.741,-0.1476 29.716,1.6267 12.734,2.8332 28.602,10.7282 37.759,18.787 24.968,21.9762 38.983,62.9155 38.983,113.8867 v 14.7192 h -79.334 -79.334 v 3.3896 c 0,1.8641 0.951,8.0141 2.112,13.6667 6.204,30.1808 27.141,46.0933 60.555,46.0214 18.821,-0.04 34.025,-5.3205 49.445,-17.1712 l 7.445,-5.7218 16.555,16.6125 16.555,16.6125 -5.334,4.6311 c -15.699,13.6317 -36.087,24.2747 -56.346,29.4137 -10.457,2.6527 -15.71,3.185 -30.158,3.0563 -9.623,-0.085 -20.575,-0.6707 -24.339,-1.2999 z M 10488.43,2985 c -3.046,-21.0586 -9.004,-35.634 -18.503,-45.2693 -11.02,-11.1779 -25.048,-15.4605 -42.591,-13.0027 -27.539,3.8587 -43.635,23.1258 -48.125,57.6054 l -0.824,6.3333 h 55.43 55.431 z m 184.788,154.3862 c -33.228,-7.074 -57.31,-27.0856 -68.559,-56.9683 -6.403,-17.0108 -7.65,-26.3325 -8.391,-62.6755 -0.982,-48.221 1.371,-65.8793 11.611,-87.0757 12.257,-25.3763 30.718,-40.1172 60.672,-48.4429 11.704,-3.2534 52.569,-3.1615 64.667,0.1453 34.378,9.3973 58.028,33.2396 66.757,67.2989 6.626,25.8532 6.934,90.8774 0.557,117.1824 -1.22,5.0323 -4.946,14.8496 -8.28,21.8163 -11.006,22.9981 -32.417,40.4169 -58.368,47.486 -11.017,3.0011 -48.761,3.7684 -60.666,1.2335 z m 46,-48.2252 c 3.666,-1.0934 9.517,-4.0583 13.002,-6.589 18.255,-13.2574 23.328,-32.6384 21.963,-83.9053 -0.766,-28.7547 -2.361,-37.0937 -9.364,-48.9523 -10.036,-16.9944 -30.494,-25.5614 -53.315,-22.3264 -16.291,2.3091 -26.168,8.1052 -34.127,20.0232 -9.009,13.4914 -10.159,20.5796 -10.159,62.5888 0,34.3527 0.19,37.2714 3.012,46.2472 2.847,9.0571 9.223,19.2311 15.537,24.7951 11.539,10.1683 34.752,13.6941 53.451,8.1187 z m 200.979,48.2553 c -14.568,-2.7604 -27.63,-7.0505 -39.902,-13.1057 -13.892,-6.8544 -34.201,-21.8636 -33.182,-24.5223 0.403,-1.0491 7.112,-9.6745 14.909,-19.1679 l 14.178,-17.2605 4.941,3.9137 c 12.941,10.2486 33.402,20.241 50.743,24.7796 10.997,2.8786 35.583,2.9178 49.159,0.079 19.021,-3.9775 30.843,-14.2725 32.809,-28.5711 1.707,-12.4148 -2.895,-21.8677 -12.939,-26.5758 -8.145,-3.8178 -16.597,-5.2342 -49.5,-8.2955 -40.554,-3.7732 -54.17,-7.0091 -67.977,-16.1545 -19.323,-12.7992 -27.379,-39.8722 -21.568,-72.4874 5.192,-29.1422 24.223,-48.0086 57.349,-56.853 8.332,-2.2246 15.919,-2.9899 34.666,-3.4967 26.592,-0.7187 39.523,0.8177 59.514,7.0715 12.417,3.8842 37.386,16.2874 43.71,21.7126 l 4.101,3.5182 -14.702,17.6666 c -8.086,9.7167 -15.272,17.6667 -15.97,17.6667 -0.697,0 -4.653,-2.1657 -8.791,-4.8127 -21.956,-14.0452 -46.707,-20.1674 -71.897,-17.7842 -23.85,2.2564 -37.357,10.7794 -40.691,25.6756 -4.656,20.8038 4.559,27.9633 40.06,31.1257 58.182,5.1827 71.679,7.9992 86.837,18.1213 16.398,10.95 24.239,26.7892 25.913,52.341 1.61,24.5634 -5.61,46.3733 -20.16,60.9 -11.01,10.9926 -25.661,18.2056 -47.257,23.2654 -12.353,2.8942 -61.332,3.7182 -74.354,1.2508 z m 269.238,0.4223 c -32.667,-5.432 -58.795,-24.6022 -71.558,-52.5052 -8.963,-19.5975 -11.327,-35.5968 -11.327,-76.6667 0,-42.9785 2.308,-57.0833 12.853,-78.5767 13.024,-26.5432 38.272,-43.9952 71.433,-49.3765 12.174,-1.9755 40.593,-1.6839 51.93,0.5328 24.648,4.8192 48.996,17.8539 60.795,32.5487 l 4.345,5.4102 -6.345,5.8695 c -3.488,3.2283 -11.622,10.5507 -18.075,16.2721 l -11.731,10.4026 -4.936,-4.7103 c -12.323,-11.76 -24.503,-17.6349 -40.825,-19.6912 -19.784,-2.4925 -38.742,2.5515 -50.714,13.4928 -15.371,14.0485 -18.491,27.0181 -17.759,73.826 0.474,30.2991 0.794,34.1223 3.517,42 7.552,21.8467 22.921,34.3933 45.661,37.2753 21.458,2.7196 41.528,-3.6612 57.224,-18.1932 8.003,-7.409 8.039,-7.425 10.965,-4.9242 3.184,2.7212 28.505,25.1648 31.494,27.916 1.53,1.4066 0.756,2.8456 -4.665,8.684 -13.175,14.186 -35.108,25.5225 -57.648,29.7954 -12.17,2.3072 -42.417,2.6498 -54.634,0.6186 z m 369.604,0.039 c -37.873,-6.3309 -65.949,-29.7924 -77.755,-64.9762 -4.736,-14.1196 -6.718,-32.0595 -6.726,-60.9363 0,-14.686 0.605,-31.5911 1.354,-37.5671 5.84,-46.569 28.775,-77.5732 66.529,-89.9321 11.304,-3.7003 15.027,-4.2555 32.318,-4.8188 15.32,-0.4991 21.741,-0.1476 29.716,1.6267 12.734,2.8332 28.602,10.7282 37.759,18.787 24.969,21.9762 38.983,62.9155 38.983,113.8867 v 14.7192 h -79.334 -79.333 v 3.3896 c 0,1.8641 0.95,8.0141 2.112,13.6667 6.204,30.1808 27.141,46.0933 60.555,46.0214 18.821,-0.04 34.025,-5.3205 49.445,-17.1712 l 7.445,-5.7218 16.555,16.6125 16.555,16.6125 -5.334,4.6311 c -15.699,13.6317 -36.087,24.2747 -56.346,29.4137 -10.457,2.6527 -15.71,3.185 -30.158,3.0563 -9.623,-0.085 -20.576,-0.6707 -24.34,-1.2999 z M 11632.429,2985 c -3.046,-21.0586 -9.003,-35.634 -18.502,-45.2693 -11.02,-11.1779 -25.048,-15.4605 -42.591,-13.0027 -27.539,3.8587 -43.635,23.1258 -48.125,57.6054 l -0.824,6.3333 h 55.43 55.431 z m 467.673,154.8386 c -32.669,-5.432 -58.795,-24.6022 -71.558,-52.5052 -8.964,-19.5975 -11.327,-35.5968 -11.327,-76.6667 0,-42.9785 2.307,-57.0833 12.853,-78.5767 13.024,-26.5432 38.271,-43.9952 71.432,-49.3765 12.174,-1.9755 40.593,-1.6839 51.931,0.5328 24.648,4.8192 48.994,17.8539 60.795,32.5487 l 4.345,5.4102 -6.345,5.8695 c -3.49,3.2283 -11.624,10.5507 -18.075,16.2721 l -11.73,10.4026 -4.936,-4.7103 c -12.323,-11.76 -24.504,-17.6349 -40.825,-19.6912 -19.784,-2.4925 -38.744,2.5515 -50.714,13.4928 -15.372,14.0485 -18.492,27.0181 -17.759,73.826 0.474,30.2991 0.794,34.1223 3.517,42 7.551,21.8467 22.921,34.3933 45.661,37.2753 21.458,2.7196 41.528,-3.6612 57.224,-18.1932 8.003,-7.409 8.038,-7.425 10.964,-4.9242 3.183,2.7212 28.504,25.1648 31.495,27.916 1.529,1.4066 0.755,2.8456 -4.667,8.684 -13.174,14.186 -35.107,25.5225 -57.646,29.7954 -12.17,2.3072 -42.419,2.6498 -54.635,0.6186 z m 244.271,0.039 c -37.873,-6.3309 -65.949,-29.7924 -77.754,-64.9762 -4.738,-14.1196 -6.719,-32.0595 -6.728,-60.9363 0,-14.686 0.605,-31.5911 1.355,-37.5671 5.839,-46.569 28.775,-77.5732 66.529,-89.9321 11.303,-3.7003 15.026,-4.2555 32.317,-4.8188 15.32,-0.4991 21.741,-0.1476 29.716,1.6267 12.735,2.8332 28.603,10.7282 37.759,18.787 24.97,21.9762 38.983,62.9155 38.983,113.8867 v 14.7192 h -79.333 -79.334 v 3.3896 c 0,1.8641 0.951,8.0141 2.113,13.6667 6.203,30.1808 27.14,46.0933 60.554,46.0214 18.821,-0.04 34.025,-5.3205 49.445,-17.1712 l 7.446,-5.7218 16.554,16.6125 16.555,16.6125 -5.333,4.6311 c -15.7,13.6317 -36.088,24.2747 -56.346,29.4137 -10.457,2.6527 -15.711,3.185 -30.159,3.0563 -9.622,-0.085 -20.575,-0.6707 -24.339,-1.2999 z M 12417.762,2985 c -3.046,-21.0586 -9.003,-35.634 -18.502,-45.2693 -11.02,-11.1779 -25.048,-15.4605 -42.591,-13.0027 -27.539,3.8587 -43.635,23.1258 -48.124,57.6054 l -0.825,6.3333 h 55.431 55.43 z m -4911.2121,-23.7246 v -176.0579 l 81,0.3912 81,0.3913 12.6667,4.4123 c 25.9249,9.0305 45.3357,25.6636 56.5624,48.4681 9.3757,19.0447 11.7673,29.8924 11.8583,53.7863 0.062,16.3545 -0.4627,22.1775 -2.8803,31.9461 -7.538,30.4582 -26.165,53.9776 -52.8346,66.7118 -18.8793,9.0145 -19.5863,9.0988 -81.0392,9.66 l -55.6666,0.5082 v 67.9203 67.9203 h -25.3334 -25.3333 z m 147.0467,-7.9696 c 23.9693,-3.4659 40.2876,-21.4302 43.8794,-48.3058 5.0431,-37.7338 -12.9881,-67.1722 -43.8794,-71.639 -4.9757,-0.7195 -28.6967,-1.32 -52.7134,-1.3346 l -43.6666,-0.026 v 61.3334 61.3333 l 43.6666,-0.027 c 24.0167,-0.015 47.7377,-0.615 52.7134,-1.3345 z m 888.9533,58.0276 v -126 h 25.3333 25.3334 v 126 126 h -25.3334 -25.3333 z m 394.6667,0 v -126 h 25.3333 25.3333 v 15.5074 15.5076 l 5.2927,-6.6473 c 9.6123,-12.0725 25.6239,-22.3829 40.9651,-26.3788 9.8724,-2.5715 31.937,-2.5321 43.005,0.076 26.3142,6.2023 46.5964,25.65 56.004,53.6997 6.1134,18.2276 6.717,28.7499 6.7254,117.2347 l 0.013,83 h -25.2777 -25.2779 l -0.3888,-85 c -0.3888,-84.9852 -0.3895,-85.0013 -3.4323,-92.5264 -8.5293,-21.0939 -23.2726,-30.5828 -47.7242,-30.7159 -20.0784,-0.1093 -32.8706,5.3238 -41.9074,17.7987 -8.0276,11.0819 -7.9917,10.6112 -7.9917,104.6856 v 85.758 h -25.3333 -25.3334 v -126 z m 368,21.3333 V 2928 h -13.3334 -13.3333 v -21.3333 -21.3333 h 13.3333 13.3334 l 0.027,-21 c 0.015,-11.55 0.614,-25.0635 1.3322,-30.03 2.759,-19.0804 10.0336,-32.565 21.7421,-40.3026 11.0323,-7.2908 18.9495,-8.6674 49.8461,-8.6674 h 27.0532 V 2808.6667 2832 h -17.801 c -29.9919,0 -30.6731,0.689 -31.3136,31.6667 l -0.4482,21.6667 h 24.7815 24.7813 V 2906.6667 2928 h -24.6666 -24.6667 v 104.6667 104.6667 h -25.3333 -25.3334 v -104.6667 z m 413.3333,-21.3333 v -126 h 25.3333 25.3334 v 15.4865 15.4865 l 5.9016,-7.1532 c 9.7905,-11.8669 22.7886,-20.601 37.2388,-25.0229 11.1646,-3.4164 31.9266,-3.7632 44.7221,-0.7471 9.6837,2.2827 25.0391,9.8995 29.4737,14.62 l 2.9748,3.1666 -14.4888,19.6621 c -7.9689,10.8143 -15.1652,20.5664 -15.9918,21.6716 -1.2999,1.7379 -2.091,1.5144 -5.8567,-1.6543 -11.3387,-9.5408 -26.8337,-13.5797 -43.8845,-11.4388 -17.7224,2.2254 -29.8503,10.4275 -36.3588,24.5896 l -3.0638,6.6667 -0.37,88.3333 -0.3698,88.3334 h -25.2968 -25.2967 z m 1636.0001,0 v -126 h 25.333 25.334 v 126 126 h -25.334 -25.333 z m 393.333,0 v -126 h 25.334 25.333 v 15.5074 15.5076 l 5.293,-6.6473 c 9.612,-12.0725 25.623,-22.3829 40.965,-26.3788 9.872,-2.5715 31.937,-2.5321 43.005,0.076 26.314,6.2023 46.596,25.65 56.004,53.6997 6.113,18.2276 6.717,28.7499 6.725,117.2347 l 0.01,83 h -25.278 -25.278 l -0.388,-85 c -0.389,-84.9852 -0.39,-85.0013 -3.433,-92.5264 -8.529,-21.0939 -23.272,-30.5828 -47.724,-30.7159 -20.078,-0.1093 -32.871,5.3238 -41.907,17.7987 -8.028,11.0819 -7.992,10.6112 -7.992,104.6856 v 85.758 h -25.333 -25.334 v -126 z M 8542.5499,2808.6667 V 2784 h 25.3333 25.3334 v 24.6667 24.6667 h -25.3334 -25.3333 z m 2812.0001,0 V 2784 h 25.334 25.334 v 24.6667 24.6667 h -25.334 -25.334 z"
       style="fill:#107ec5;fill-opacity:1;stroke-width:1.33333337" />
    <g
       transform="translate(-6086.0714)"
       id="g205">
      <path
         sodipodi:nodetypes="ccscssscccsccsssccc"
         inkscape:connector-curvature="0"
         id="path66"
         d="m 14539.289,2394.4598 c -8.067,-0.9963 -27.567,-3.3543 -43.333,-5.24 -268.138,-32.0701 -526.895,-88.1093 -738.667,-159.9741 -241.307,-81.8875 -442.601,-190.6443 -564.584,-305.0391 -52.396,-49.1373 -77.623,-94.0686 -89.603,-159.5935 -3.264,-17.8504 -3.286,-64.6927 -0.04,-83.2761 12.105,-69.2874 44.021,-127.7836 100.851,-184.8444 73.345,-73.6428 177.033,-132.3019 317.546,-179.6442 33.496,-11.2856 98.127,-30.4824 99.011,-29.4084 0.229,0.2785 3.843,8.0064 8.03,17.1731 18.193,39.8255 51.454,98.1431 83.269,146 9.263,13.9333 17.025,25.7236 17.247,26.2007 0.223,0.4769 -2.116,4.9769 -5.198,10 -19.801,32.2697 -34.771,71.5068 -41.383,108.466 -3.495,19.5365 -4.744,56.7609 -2.601,77.5177 14.157,137.1513 123.066,279.7862 322.027,421.7463 136.297,97.2495 308.514,191.4116 526.055,287.6288 16.478,7.2884 30.228,13.5192 30.555,13.8461 0.795,0.7947 -1.9,0.5758 -19.183,-1.5589 z"
         style="fill:#0392ce;fill-opacity:1;stroke-width:1.33333337" />
      <path
         style="fill:#88c03b;fill-opacity:1;stroke-width:1.33333337"
         d="m 14018.51,846.1859 c -159.742,-0.3325 -282.091,39.8589 -357.932,118.5937 -55.157,57.2632 -81.855,133.8801 -73.881,212.0254 7.546,55.002 34.653,113.3551 41.803,127.8086 60.956,124.0996 120.782,208.5972 208.01,311.334 153.547,179.9291 353.327,355.1111 600.111,526.2225 50.931,35.3136 169.254,112.985 191.152,125.4785 l 4.848,2.7657 -3.471,-3.9004 c -10.816,-12.1594 -40.12,-46.6562 -63.343,-74.5664 -267.34,-321.3006 -411.749,-583.336 -433.264,-786.1699 -4.127,-38.9044 -2.182,-89.5469 4.73,-123.164 14.368,-69.8803 51.592,-129.9314 107.178,-172.9043 6.506,-5.0303 12.67,-9.6157 13.695,-10.1895 1.566,-0.8764 1.232,-4.9771 -2.089,-25.6425 -9.908,-61.65 -13.861,-107.6526 -13.998,-162.8946 l -0.104,-42.2988 -3.334,-0.6934 c -10.718,-2.2296 -55.068,-9.0832 -77.334,-11.9511 -50.391,-6.4907 -98.049,-9.7605 -142.777,-9.8535 z"
         id="path68-5-9"
         inkscape:connector-curvature="0"
         sodipodi:nodetypes="cccccccccccscccccccc" />
      <path
         inkscape:connector-curvature="0"
         style="fill:#fa9d1c;fill-opacity:1;stroke-width:1.33333337"
         d="m 14540.621,605.38672 c -28.499,0.0858 -37.989,0.61813 -53.334,2.98633 -69.36,10.704 -123.692,36.23227 -167.83,78.85937 -36.354,35.1096 -60.287,76.74876 -70.072,121.91016 -7.801,35.67361 -7.414,66.12246 -7.326,101.83982 0.137,55.242 4.09,101.2446 13.998,162.8946 3.321,20.6654 3.655,24.7661 2.089,25.6425 -17.399,13.4858 1.78,-4.6365 3.786,8.9805 0.484,3.362 3.571,19.0126 6.859,34.7793 57.343,274.9393 196.395,588.2752 410.762,925.6034 22.569,35.5149 65.683,100.7933 65.713,99.5039 0.01,-0.4914 -4.791,-17.2336 -10.674,-37.2051 -62.527,-212.2788 -102.692,-408.8182 -115.24,-563.9022 -4.943,-61.096 -6.338,-139.2061 -3.334,-186.666 9.444,-149.2012 49.484,-260.0263 119.255,-330.0723 50.478,-50.6766 112.775,-78.6044 191.883,-86.0234 21.166,-1.9851 69.725,-0.8988 91.465,2.0468 74.208,10.0548 142.34,31.7311 218,69.3555 41.392,20.5832 80.994,44.4399 118.666,71.4844 l 8,5.7422 -12.666,-13.8535 c -18.675,-20.4262 -99.818,-101.5982 -126.23,-126.2754 -103.619,-96.81613 -198.683,-172.33594 -289.104,-229.66994 -110.886,-70.3101 -218.22,-115.5711 -311.396,-131.3125 -33.751,-5.702 -46.968,-6.75764 -83.27,-6.64844 z"
         id="path70-4"
         sodipodi:nodetypes="ccsccccccccccccccccccccsc" />
    </g>
  </g>
</svg>
